<svg xmlns="http://www.w3.org/2000/svg" viewBox="-3 -13 30 62">
  <path d="M4 11 a8 8 0 0 1 16 0 z" fill="#eae3cf"/>
  <line x1="7" y1="4.8" x2="5.2" y2="2" stroke="#eae3cf" stroke-width="2" stroke-linecap="round"/>
  <line x1="17" y1="4.8" x2="18.8" y2="2" stroke="#eae3cf" stroke-width="2" stroke-linecap="round"/>
  <circle cx="8.5" cy="8.2" r="1.5" fill="#111815"/>
  <circle cx="15.5" cy="8.2" r="1.5" fill="#111815"/>
  <path d="M4 21 q4 -1.8 8 0 t8 0 V25 a8 8 0 0 1 -16 0 z" fill="#d9a441"/>
  <path d="M5.5 13 h13 a1.5 1.5 0 0 1 1.5 1.5 v10.5 a8 8 0 0 1 -16 0 v-10.5 A1.5 1.5 0 0 1 5.5 13 Z" fill="none" stroke="#eae3cf" stroke-width="2.6" stroke-linejoin="round"/>
</svg>
